<svg xmlns="http://www.w3.org/2000/svg" fill="none" viewBox="0 0 210 46" class="logotipo-horizontal"><path fill="#0A3512" d="M55.547 7.972c3.455 0 5.709 1.716 6.502 4.684h-3.148c-.487-1.357-1.613-2.226-3.354-2.226-2.354 0-3.917 1.74-3.917 4.811s1.56 4.839 3.917 4.839c1.741 0 2.817-.769 3.354-2.226h3.148c-.794 2.764-3.045 4.683-6.502 4.683-4.045 0-6.911-2.866-6.911-7.296s2.866-7.269 6.911-7.269m6.937 7.271c0-4.429 3.174-7.269 7.193-7.269s7.194 2.842 7.194 7.27-3.277 7.295-7.322 7.295-7.065-2.867-7.065-7.296m11.39 0c0-3.2-2.073-4.736-4.249-4.736s-4.173 1.536-4.173 4.736 1.894 4.761 4.095 4.761 4.327-1.56 4.327-4.76Zm4.351-7.04h2.918v1.613c.947-1.15 2.507-1.844 4.198-1.844 3.301 0 5.786 2.073 5.786 6.015v8.32h-2.892v-7.885c0-2.585-1.407-3.917-3.533-3.917s-3.558 1.332-3.558 3.917v7.884h-2.917V8.201zm15.538 2.382h-1.664V8.203h1.663V4.696h2.945v3.507h3.43v2.382h-3.43v7.806c0 1.05.41 1.485 1.638 1.485h1.792v2.432h-2.304c-2.508 0-4.07-1.05-4.07-3.917zm14.233-2.613c2.381 0 4.019 1.126 4.889 2.28v-2.05h2.944v14.105h-2.944V20.21c-.897 1.203-2.586 2.33-4.94 2.33-3.661 0-6.605-2.996-6.605-7.347s2.945-7.219 6.656-7.219zm.613 2.535c-2.176 0-4.274 1.638-4.274 4.684 0 3.045 2.098 4.811 4.274 4.811s4.274-1.715 4.274-4.76-2.073-4.737-4.274-4.737zm17.356-2.535c3.736 0 6.63 2.867 6.63 7.219 0 4.351-2.917 7.346-6.63 7.346-2.329 0-3.993-1.05-4.915-2.278v2.047h-2.917V3.365h2.917v6.937c.922-1.28 2.689-2.33 4.915-2.33m-.641 2.535c-2.176 0-4.274 1.716-4.274 4.736s2.098 4.761 4.274 4.761 4.301-1.766 4.301-4.811-2.098-4.684-4.301-4.684zm8.243-6.04c0-1.05.819-1.87 1.869-1.87s1.844.82 1.844 1.87-.819 1.87-1.844 1.87a1.863 1.863 0 0 1-1.869-1.87m.385 3.736h2.917v14.105h-2.917zm5.221-4.838h2.917v18.941h-2.917zm4.839 1.102c0-1.05.819-1.87 1.869-1.87s1.844.82 1.844 1.87-.819 1.87-1.844 1.87a1.86 1.86 0 0 1-1.869-1.87m.384 3.736h2.917v14.105h-2.917zm10.93-.231c1.843 0 3.788.87 4.864 2.202v-6.81h2.944v18.942h-2.944v-2.125c-.897 1.28-2.586 2.354-4.89 2.354-3.711 0-6.655-2.994-6.655-7.346s2.944-7.219 6.681-7.219zm.588 2.535c-2.176 0-4.274 1.639-4.274 4.684s2.098 4.811 4.274 4.811c2.175 0 4.274-1.715 4.274-4.76s-2.073-4.737-4.274-4.737zm15.205-2.535c2.379 0 4.02 1.126 4.889 2.28v-2.05h2.945v14.105h-2.945V20.21c-.897 1.203-2.585 2.33-4.94 2.33-3.66 0-6.605-2.996-6.605-7.347s2.945-7.219 6.656-7.219zm.613 2.535c-2.176 0-4.274 1.638-4.274 4.684 0 3.045 2.098 4.811 4.274 4.811s4.274-1.715 4.274-4.76-2.073-4.737-4.274-4.737zm15.231-2.535c1.844 0 3.789.87 4.864 2.202v-6.81h2.944v18.942h-2.944v-2.125c-.897 1.28-2.585 2.354-4.889 2.354-3.711 0-6.656-2.994-6.656-7.346s2.945-7.219 6.681-7.219zm.59 2.535c-2.176 0-4.274 1.639-4.274 4.684s2.098 4.811 4.274 4.811 4.274-1.715 4.274-4.76-2.073-4.737-4.274-4.737zm15.588 12.03c-4.045 0-7.04-2.866-7.04-7.296s2.867-7.269 7.04-7.269S210 10.764 210 14.91c0 .487-.025.947-.103 1.435h-10.776c.206 2.329 1.869 3.736 4.02 3.736 1.791 0 2.791-.87 3.326-1.972h3.149c-.794 2.457-3.02 4.43-6.477 4.43h.002Zm-3.993-8.548h7.807c-.051-2.176-1.767-3.557-3.942-3.557-1.97 0-3.558 1.331-3.865 3.557"></path><path fill="#2BBE41" d="M44.123 39.25c0-1.05.819-1.868 1.869-1.868s1.844.819 1.844 1.869-.82 1.869-1.844 1.869a1.86 1.86 0 0 1-1.87-1.87Zm11.263-12.645c3.455 0 5.709 1.716 6.502 4.684H58.74c-.487-1.357-1.613-2.226-3.354-2.226-2.354 0-3.917 1.74-3.917 4.811s1.561 4.84 3.917 4.84c1.741 0 2.817-.77 3.354-2.227h3.148c-.793 2.764-3.045 4.683-6.502 4.683-4.045 0-6.911-2.867-6.911-7.296s2.866-7.269 6.911-7.269m6.937 7.271c0-4.429 3.174-7.269 7.193-7.269s7.194 2.842 7.194 7.27-3.277 7.295-7.322 7.295-7.065-2.866-7.065-7.296m11.39 0c0-3.2-2.073-4.736-4.249-4.736s-4.173 1.536-4.173 4.736 1.894 4.761 4.095 4.761 4.327-1.56 4.327-4.76Zm4.351-7.04h2.917v1.613c.948-1.15 2.483-1.844 4.173-1.844 2.227 0 4.096.948 5.068 2.791.87-1.715 2.867-2.79 4.915-2.79 3.301 0 5.811 2.072 5.811 6.014v8.32h-2.892v-7.885c0-2.585-1.407-3.917-3.533-3.917s-3.557 1.332-3.557 3.917v7.884h-2.892v-7.884c0-2.585-1.408-3.917-3.533-3.917s-3.558 1.332-3.558 3.917v7.884h-2.917V26.834z"></path><path fill="#0A3512" d="M26.344 34.018a11.8 11.8 0 0 1-3.707.378c-5.977-.333-10.796-5.205-11.064-11.185-.303-6.735 5.068-12.29 11.735-12.29 1.02 0 2.007.13 2.95.374 1.058.274 2.085-.543 2.085-1.636V2.117c0-.757-.532-1.41-1.273-1.561a22.8 22.8 0 0 0-5.084-.444C9.906.414.131 10.335.002 22.419-.135 34.994 10.02 45.23 22.563 45.23c1.522 0 3.008-.152 4.447-.439a1.67 1.67 0 0 0 1.333-1.642v-7.62c0-1.042-.992-1.782-2-1.512Z"></path><path fill="#2BC041" d="M35.486 16.173a3.525 3.525 0 0 0-4.985 0l-3.398 3.398-.918-.918a3.525 3.525 0 0 0-4.985 4.985l4.752 4.751c.64.64 1.679.64 2.32 0l1.33-1.331c.067-.066.125-.134.185-.204l5.697-5.697a3.525 3.525 0 0 0 0-4.984z"></path></svg>