<svg xmlns="http://www.w3.org/2000/svg" fill="none" viewBox="0 0 37 46" class="logotipo-symbol"><path fill="#0A3512" d="M26.69 34.358c-1.19.318-2.452.457-3.756.384-6.055-.338-10.936-5.275-11.208-11.334-.308-6.823 5.133-12.45 11.889-12.45 1.032 0 2.033.13 2.988.378 1.072.278 2.112-.55 2.112-1.657V2.038c0-.766-.54-1.427-1.29-1.58a23 23 0 0 0-5.15-.45C10.036.312.132 10.363.001 22.605-.136 35.347 10.15 45.718 22.86 45.718a23 23 0 0 0 4.504-.445 1.69 1.69 0 0 0 1.352-1.664v-7.72c0-1.056-1.005-1.804-2.025-1.532v.002Z"></path><path fill="#2BC041" d="M35.953 16.28a3.57 3.57 0 0 0-5.049 0l-3.442 3.442-.93-.931a3.57 3.57 0 0 0-5.05 5.048l4.815 4.814a1.66 1.66 0 0 0 2.35 0l1.35-1.35c.066-.065.127-.137.187-.206l5.77-5.771a3.57 3.57 0 0 0 0-5.048z"></path></svg>